# Blender 3.5.0
# www.blender.org
mtllib Player.mtl
o Cube
v 1.000000 2.720215 -1.000000
v 1.000000 0.720215 -1.000000
v 1.000000 2.720215 1.000000
v 1.000000 0.720215 1.000000
v -1.000000 2.720215 -1.000000
v -1.000000 0.720215 -1.000000
v -1.000000 2.720215 1.000000
v -1.000000 0.720215 1.000000
v -1.000000 0.720215 0.000000
v 1.000000 2.720215 0.000000
v -1.000000 2.720215 0.000000
v 1.000000 0.720215 0.000000
v 0.998460 1.706196 -1.434816
v -1.000000 1.720215 1.296604
v 1.000000 1.720215 1.296604
v -1.001540 1.706196 -1.434816
v 1.000000 1.720215 0.000000
v -1.000000 1.720215 0.000000
v -1.000000 2.720215 -0.500000
v 1.000000 0.720215 -0.500000
v -1.000000 0.720215 -0.500000
v 1.000000 2.720215 -0.500000
v 1.000000 1.720215 -0.500000
v -1.000000 1.720215 -0.500000
v -1.000000 0.720215 0.500000
v 1.000000 2.720215 0.500000
v -1.000000 2.720215 0.500000
v 1.000000 0.720215 0.500000
v -1.000000 1.720215 0.500000
v 1.000000 1.720215 0.500000
v 1.000000 1.220215 -1.434816
v 1.000000 1.220215 1.296604
v -1.000000 1.220215 -1.434816
v 1.000000 1.220215 0.000000
v -1.000000 1.220215 0.000000
v -1.000000 1.220215 1.296604
v -1.000000 1.220215 -0.500000
v 1.000000 1.220215 -0.500000
v 1.000000 1.220215 0.500000
v -1.000000 1.220215 0.500000
v -1.000000 1.484870 1.296604
v 1.000000 1.484870 -1.434816
v 1.000000 1.484870 1.296604
v -1.000000 1.484870 -1.434816
v 1.000000 1.484870 0.000000
v -1.000000 1.484870 0.000000
v -1.000000 1.484870 -0.500000
v 1.000000 1.484870 -0.500000
v 1.000000 1.484870 0.500000
v -1.000000 1.484870 0.500000
v -1.000000 3.345570 -0.750000
v 1.000000 0.720215 -0.750000
v -1.000000 1.720215 -0.750000
v -1.000000 0.720215 -0.750000
v 1.000000 3.345570 -0.750000
v 1.000000 1.720215 -0.750000
v 1.000000 1.220215 -0.750000
v -1.000000 1.220215 -1.367716
v 1.000000 1.484870 -0.750000
v -1.000000 1.484870 -0.750000
v -1.000000 0.720215 0.763122
v 1.000000 3.289894 0.763122
v 1.000000 1.720215 0.919207
v -1.000000 3.289894 0.763122
v 1.000000 0.720215 0.763122
v -1.000000 1.720215 0.919207
v -1.000000 1.220215 0.919207
v 1.000000 1.220215 0.919207
v -1.000000 1.484870 0.919207
v 1.000000 1.484870 0.919207
vn -0.0000 0.3839 0.9234
vn -0.0000 0.2844 0.9587
vn -1.0000 0.0006 0.0022
vn -0.0000 -1.0000 -0.0000
vn 1.0000 -0.0000 -0.0000
vn -0.0000 0.3941 -0.9191
vn -1.0000 -0.0000 -0.0000
vn -0.0000 1.0000 -0.0000
vn -0.0000 -0.0000 -1.0000
vn -1.0000 -0.0070 -0.0000
vn -0.0000 -0.0000 1.0000
vn -0.0000 0.3712 0.9285
vn -0.0000 -0.5102 0.8601
vn -0.0000 -0.6562 -0.7546
vn 1.0000 -0.0006 -0.0022
vn -0.0000 0.3712 -0.9285
vn 1.0000 0.0070 -0.0000
vn -0.0000 0.4193 -0.9078
vn -1.0000 -0.0000 0.0022
vn 1.0000 -0.0000 -0.0022
vt 0.625000 0.500000
vt 0.375000 0.500000
vt 0.625000 0.750000
vt 0.375000 0.750000
vt 0.625000 0.250000
vt 0.875000 0.500000
vt 0.125000 0.500000
vt 0.375000 0.250000
vt 0.875000 0.750000
vt 0.625000 1.000000
vt 0.625000 0.000000
vt 0.125000 0.750000
vt 0.375000 1.000000
vt 0.375000 0.000000
vt 0.125000 0.625000
vt 0.375000 0.125000
vt 0.625000 0.625000
vt 0.625000 0.125000
vt 0.875000 0.625000
vt 0.375000 0.625000
vt 0.500000 0.500000
vt 0.500000 1.000000
vt 0.500000 0.000000
vt 0.500000 0.750000
vt 0.500000 0.250000
vt 0.500000 0.625000
vt 0.500000 0.125000
vt 0.875000 0.562500
vt 0.625000 0.187500
vt 0.375000 0.562500
vt 0.125000 0.562500
vt 0.375000 0.187500
vt 0.625000 0.562500
vt 0.500000 0.562500
vt 0.500000 0.187500
vt 0.375000 0.062500
vt 0.125000 0.687500
vt 0.625000 0.687500
vt 0.625000 0.062500
vt 0.875000 0.687500
vt 0.375000 0.687500
vt 0.500000 0.062500
vt 0.500000 0.687500
vt 0.437500 0.500000
vt 0.437500 0.750000
vt 0.437500 0.250000
vt 0.437500 0.625000
vt 0.437500 0.125000
vt 0.437500 1.000000
vt 0.437500 0.000000
vt 0.437500 0.187500
vt 0.437500 0.562500
vt 0.437500 0.687500
vt 0.437500 0.062500
vt 0.470582 1.000000
vt 0.470582 0.000000
vt 0.470582 0.500000
vt 0.470582 0.750000
vt 0.470582 0.250000
vt 0.470582 0.625000
vt 0.470582 0.125000
vt 0.470582 0.187500
vt 0.470582 0.562500
vt 0.470582 0.687500
vt 0.470582 0.062500
vt 0.875000 0.531250
vt 0.625000 0.218750
vt 0.375000 0.531250
vt 0.500000 0.218750
vt 0.375000 0.218750
vt 0.125000 0.531250
vt 0.625000 0.531250
vt 0.500000 0.531250
vt 0.437500 0.531250
vt 0.437500 0.218750
vt 0.470582 0.531250
vt 0.470582 0.218750
vt 0.375000 0.029610
vt 0.125000 0.720390
vt 0.625000 0.720390
vt 0.500000 0.720390
vt 0.625000 0.029610
vt 0.875000 0.720390
vt 0.375000 0.720390
vt 0.500000 0.029610
vt 0.437500 0.029610
vt 0.437500 0.720390
vt 0.470582 0.029610
vt 0.470582 0.720390
s 0
usemtl Material
f 64/83/1 3/3/1 62/80/1
f 3/3/2 14/22/2 15/24/2
f 53/69/3 5/5/3 16/25/3
f 65/84/4 8/12/4 61/79/4
f 63/81/5 3/3/5 15/24/5
f 5/5/6 13/21/6 16/25/6
f 22/33/5 17/26/5 23/34/5
f 20/30/4 9/15/4 21/31/4
f 27/39/7 18/27/7 29/42/7
f 19/28/8 10/17/8 22/33/8
f 29/42/7 46/61/7 50/65/7
f 23/34/5 45/60/5 48/63/5
f 44/59/9 13/21/9 42/57/9
f 63/81/5 43/58/5 70/89/5
f 60/77/10 16/25/10 44/59/10
f 15/24/11 41/55/11 43/58/11
f 18/27/7 47/62/7 46/61/7
f 56/73/5 48/63/5 59/76/5
f 51/66/12 22/33/12 55/72/12
f 52/68/4 21/31/4 54/71/4
f 56/73/5 22/33/5 23/34/5
f 11/18/7 24/35/7 18/27/7
f 17/26/5 49/64/5 45/60/5
f 66/85/7 50/65/7 69/88/7
f 66/85/7 27/39/7 29/42/7
f 10/17/5 30/43/5 17/26/5
f 12/20/4 25/37/4 9/15/4
f 11/19/8 26/38/8 10/17/8
f 61/78/7 40/54/7 25/36/7
f 34/47/5 28/41/5 12/20/5
f 57/74/5 20/30/5 52/68/5
f 35/48/7 21/32/7 9/16/7
f 32/45/13 8/13/13 4/4/13
f 58/75/7 6/8/7 54/70/7
f 68/87/5 4/4/5 65/84/5
f 33/46/14 2/2/14 6/8/14
f 38/52/5 12/20/5 20/30/5
f 40/54/7 9/16/7 25/36/7
f 69/88/7 40/54/7 67/86/7
f 45/60/5 39/53/5 34/47/5
f 59/76/5 38/52/5 57/74/5
f 46/61/7 37/51/7 35/48/7
f 43/58/11 36/49/11 32/45/11
f 58/75/7 44/59/7 33/46/7
f 70/89/5 32/45/5 68/87/5
f 44/59/9 31/44/9 33/46/9
f 48/63/5 34/47/5 38/52/5
f 50/65/7 35/48/7 40/54/7
f 37/51/7 60/77/7 58/75/7
f 42/57/5 57/74/5 31/44/5
f 37/51/7 54/70/7 21/32/7
f 2/2/5 57/74/5 52/68/5
f 1/1/15 56/73/15 13/21/15
f 2/2/4 54/71/4 6/7/4
f 5/6/16 55/72/16 1/1/16
f 13/21/17 59/76/17 42/57/17
f 24/35/7 60/77/7 47/62/7
f 19/29/7 53/69/7 24/35/7
f 49/64/5 68/87/5 39/53/5
f 41/56/7 67/86/7 36/50/7
f 39/53/5 65/84/5 28/41/5
f 8/14/7 67/86/7 61/78/7
f 7/11/7 66/85/7 14/23/7
f 14/23/7 69/88/7 41/56/7
f 30/43/5 70/89/5 49/64/5
f 26/38/5 63/81/5 30/43/5
f 28/41/4 61/79/4 25/37/4
f 27/40/18 62/80/18 26/38/18
f 64/83/1 7/9/1 3/3/1
f 3/3/2 7/10/2 14/22/2
f 53/69/7 51/67/7 5/5/7
f 65/84/4 4/4/4 8/12/4
f 63/81/5 62/80/5 3/3/5
f 5/5/6 1/1/6 13/21/6
f 22/33/5 10/17/5 17/26/5
f 20/30/4 12/20/4 9/15/4
f 27/39/7 11/18/7 18/27/7
f 19/28/8 11/19/8 10/17/8
f 29/42/7 18/27/7 46/61/7
f 23/34/5 17/26/5 45/60/5
f 44/59/9 16/25/9 13/21/9
f 63/81/5 15/24/5 43/58/5
f 60/77/19 53/69/19 16/25/19
f 15/24/11 14/22/11 41/55/11
f 18/27/7 24/35/7 47/62/7
f 56/73/5 23/34/5 48/63/5
f 51/66/12 19/28/12 22/33/12
f 52/68/4 20/30/4 21/31/4
f 56/73/5 55/72/5 22/33/5
f 11/18/7 19/29/7 24/35/7
f 17/26/5 30/43/5 49/64/5
f 66/85/7 29/42/7 50/65/7
f 66/85/7 64/82/7 27/39/7
f 10/17/5 26/38/5 30/43/5
f 12/20/4 28/41/4 25/37/4
f 11/19/8 27/40/8 26/38/8
f 61/78/7 67/86/7 40/54/7
f 34/47/5 39/53/5 28/41/5
f 57/74/5 38/52/5 20/30/5
f 35/48/7 37/51/7 21/32/7
f 32/45/13 36/49/13 8/13/13
f 58/75/7 33/46/7 6/8/7
f 68/87/5 32/45/5 4/4/5
f 33/46/14 31/44/14 2/2/14
f 38/52/5 34/47/5 12/20/5
f 40/54/7 35/48/7 9/16/7
f 69/88/7 50/65/7 40/54/7
f 45/60/5 49/64/5 39/53/5
f 59/76/5 48/63/5 38/52/5
f 46/61/7 47/62/7 37/51/7
f 43/58/11 41/55/11 36/49/11
f 58/75/7 60/77/7 44/59/7
f 70/89/5 43/58/5 32/45/5
f 44/59/9 42/57/9 31/44/9
f 48/63/5 45/60/5 34/47/5
f 50/65/7 46/61/7 35/48/7
f 37/51/7 47/62/7 60/77/7
f 42/57/5 59/76/5 57/74/5
f 37/51/7 58/75/7 54/70/7
f 2/2/5 31/44/5 57/74/5
f 1/1/5 55/72/5 56/73/5
f 2/2/4 52/68/4 54/71/4
f 5/6/16 51/66/16 55/72/16
f 13/21/20 56/73/20 59/76/20
f 24/35/7 53/69/7 60/77/7
f 19/29/7 51/67/7 53/69/7
f 49/64/5 70/89/5 68/87/5
f 41/56/7 69/88/7 67/86/7
f 39/53/5 68/87/5 65/84/5
f 8/14/7 36/50/7 67/86/7
f 7/11/7 64/82/7 66/85/7
f 14/23/7 66/85/7 69/88/7
f 30/43/5 63/81/5 70/89/5
f 26/38/5 62/80/5 63/81/5
f 28/41/4 65/84/4 61/79/4
f 27/40/18 64/83/18 62/80/18
